<svg width="193" height="64" viewBox="0 0 193 64" fill="none" xmlns="http://www.w3.org/2000/svg">
<path fill-rule="evenodd" clip-rule="evenodd" d="M47.4504 22.6019H24.9298V29.3608H40.9017C40.1126 38.8382 32.3162 42.8802 24.9568 42.8802C15.5414 42.8799 7.32521 35.3876 7.32521 24.8864C7.32521 14.6562 15.1574 6.77789 24.9774 6.77789C32.554 6.77789 37.0185 11.6628 37.0185 11.6628L41.6975 6.76189C41.6975 6.76189 35.6919 1.01727e-09 24.7382 1.01727e-09C10.7903 -0.000127078 0 11.9059 0 24.7656C0 37.3667 10.15 49.6543 25.0938 49.6543C38.2369 49.6542 47.8577 40.5484 47.8577 27.0829C47.8577 24.2421 47.4498 22.6003 47.4498 22.6003L47.4504 22.6019Z" fill="#176BEF"/>
<path fill-rule="evenodd" clip-rule="evenodd" d="M65.9903 23.9761C70.5344 23.9761 74.8406 27.6919 74.8406 33.6791C74.8406 39.5395 70.5528 43.3611 65.9694 43.3611C60.9333 43.361 56.9602 39.2818 56.9602 33.6328C56.9602 28.1048 60.8838 23.9761 65.9903 23.9761ZM65.8983 17.7075C56.6574 17.7075 50.0351 25.0139 50.0351 33.5356C50.0351 42.1828 56.4584 49.6255 66.0068 49.6255C74.6508 49.6252 81.7321 42.9438 81.7321 33.7213C81.7321 23.151 73.4949 17.7075 65.8984 17.7075H65.8983Z" fill="#FF3E30"/>
<path fill-rule="evenodd" clip-rule="evenodd" d="M100.49 23.9761C105.035 23.9761 109.341 27.6919 109.341 33.6791C109.341 39.5395 105.053 43.3611 100.47 43.3611C95.434 43.361 91.4608 39.2818 91.4608 33.6328C91.4608 28.1048 95.3848 23.9761 100.49 23.9761ZM100.399 17.7075C91.1581 17.7075 84.5351 25.0139 84.5351 33.5356C84.5352 42.1828 90.9589 49.6255 100.507 49.6255C109.151 49.6252 116.232 42.9438 116.232 33.7213C116.232 23.151 107.995 17.7075 100.399 17.7075Z" fill="#F7B529"/>
<path fill-rule="evenodd" clip-rule="evenodd" d="M134.853 23.9802C139.011 23.9802 143.281 27.5715 143.281 33.7045C143.281 39.9377 139.02 43.3735 134.761 43.3735C130.239 43.3734 126.031 39.6603 126.031 33.7634C126.031 27.6366 130.401 23.9802 134.853 23.9802ZM134.238 17.7241C125.757 17.7241 119.089 25.2376 119.089 33.6705C119.089 43.2764 126.819 49.6467 134.092 49.6467C138.589 49.6464 140.981 47.8411 142.747 45.7687L142.747 48.9156C142.747 54.4213 139.441 57.7189 134.451 57.7189C129.632 57.7189 127.214 54.0943 126.374 52.0372L120.31 54.6014C122.461 59.202 126.792 64.0001 134.502 64.0001C142.935 64.0001 149.362 58.628 149.362 47.361V18.6837H142.747V21.3872C140.713 19.17 137.931 17.7246 134.238 17.7246L134.238 17.7241Z" fill="#176BEF"/>
<path fill-rule="evenodd" clip-rule="evenodd" d="M179.054 23.8237C181.937 23.8237 184.012 25.3738 184.894 27.2326L170.764 33.2056C170.154 28.5814 174.486 23.8237 179.054 23.8237ZM178.779 17.6857C170.778 17.6857 164.06 24.1239 164.06 33.6238C164.06 43.6758 171.548 49.6377 179.547 49.6377C186.223 49.6377 190.321 45.9435 192.767 42.634L187.312 38.963C185.896 41.1849 183.53 43.3564 179.581 43.3564C175.145 43.3562 173.105 40.8993 171.841 38.5195L193 29.6403L191.902 27.0379C189.857 21.9423 185.089 17.6867 178.78 17.6867L178.778 17.6855L178.779 17.6857Z" fill="#FF3E30"/>
<path fill-rule="evenodd" clip-rule="evenodd" d="M153.973 48.6908H160.923V1.65039H153.973V48.6908Z" fill="#179C52"/>
</svg>
