<svg width="64" height="64" viewBox="0 0 64 64" fill="none" xmlns="http://www.w3.org/2000/svg">
<path opacity="0.987" fill-rule="evenodd" clip-rule="evenodd" d="M28.836 4.24398C31.736 3.91998 33.452 3.91998 36.568 4.24398C42.0837 5.06036 47.1969 7.60992 51.168 11.524C48.4845 14.0605 45.8362 16.6341 43.224 19.244C38.2213 15.004 32.6373 14.0253 26.472 16.308C21.9493 18.388 18.8 21.7586 17.024 26.42C14.1218 24.2593 11.2573 22.0483 8.43199 19.788C8.23564 19.6846 8.01138 19.6468 7.79199 19.68C12.28 11.0266 19.2933 5.87998 28.832 4.23998" fill="#F44336"/>
<path opacity="0.997" fill-rule="evenodd" clip-rule="evenodd" d="M7.784 19.68C8.01067 19.6453 8.22534 19.6813 8.428 19.788C11.2533 22.0483 14.1178 24.2593 17.02 26.42C16.5633 28.2362 16.2754 30.0908 16.16 31.96C16.2587 33.768 16.5453 35.5427 17.02 37.284L8 44.464C4.072 36.256 4 27.9947 7.784 19.68Z" fill="#FFC107"/>
<path opacity="0.999" fill-rule="evenodd" clip-rule="evenodd" d="M50.74 53.1599C47.9315 50.6831 44.9912 48.3597 41.932 46.1999C44.9987 44.0346 46.86 41.0639 47.516 37.2879H32.488V26.8519C41.1547 26.7799 49.8173 26.8533 58.476 27.0719C60.1187 35.9919 58.2213 44.0346 52.784 51.1999C52.1375 51.8872 51.4526 52.5414 50.74 53.1599Z" fill="#448AFF"/>
<path opacity="0.993" fill-rule="evenodd" clip-rule="evenodd" d="M17.02 37.288C20.3 45.44 26.3133 49.2453 35.06 48.704C37.5153 48.4197 39.8694 47.562 41.932 46.2C44.9933 48.3653 47.9293 50.6853 50.74 53.16C46.2866 57.1618 40.6084 59.5363 34.632 59.896C33.2742 60.0045 31.9098 60.0045 30.552 59.896C20.3707 58.696 12.8533 53.552 8 44.464L17.02 37.288Z" fill="#43A047"/>
</svg>
